<mxfile host="app.diagrams.net" modified="2023-11-26T13:36:56.760Z" agent="Mozilla/5.0 (Windows NT 10.0; Win64; x64) AppleWebKit/537.36 (KHTML, like Gecko) Chrome/119.0.0.0 Safari/537.36" etag="7nuqdDcCruAz2f_M_bjS" version="22.1.4" type="device">
  <diagram id="C5RBs43oDa-KdzZeNtuy" name="Page-1">
    <mxGraphModel dx="2083" dy="1688" grid="1" gridSize="10" guides="1" tooltips="1" connect="1" arrows="1" fold="1" page="1" pageScale="1" pageWidth="827" pageHeight="1169" math="0" shadow="0">
      <root>
        <mxCell id="WIyWlLk6GJQsqaUBKTNV-0" />
        <mxCell id="WIyWlLk6GJQsqaUBKTNV-1" parent="WIyWlLk6GJQsqaUBKTNV-0" />
        <mxCell id="SZy2DnvqH9q7Aidjh8Kh-2" style="edgeStyle=orthogonalEdgeStyle;rounded=0;orthogonalLoop=1;jettySize=auto;html=1;" parent="WIyWlLk6GJQsqaUBKTNV-1" source="SZy2DnvqH9q7Aidjh8Kh-0" target="SZy2DnvqH9q7Aidjh8Kh-1" edge="1">
          <mxGeometry relative="1" as="geometry" />
        </mxCell>
        <mxCell id="SZy2DnvqH9q7Aidjh8Kh-0" value="start" style="ellipse;whiteSpace=wrap;html=1;" parent="WIyWlLk6GJQsqaUBKTNV-1" vertex="1">
          <mxGeometry x="330" y="90" width="120" height="80" as="geometry" />
        </mxCell>
        <mxCell id="SZy2DnvqH9q7Aidjh8Kh-4" style="edgeStyle=orthogonalEdgeStyle;rounded=0;orthogonalLoop=1;jettySize=auto;html=1;entryX=1;entryY=0.5;entryDx=0;entryDy=0;" parent="WIyWlLk6GJQsqaUBKTNV-1" source="SZy2DnvqH9q7Aidjh8Kh-1" target="SZy2DnvqH9q7Aidjh8Kh-3" edge="1">
          <mxGeometry relative="1" as="geometry" />
        </mxCell>
        <mxCell id="SZy2DnvqH9q7Aidjh8Kh-19" style="edgeStyle=orthogonalEdgeStyle;rounded=0;orthogonalLoop=1;jettySize=auto;html=1;entryX=0;entryY=0.5;entryDx=0;entryDy=0;" parent="WIyWlLk6GJQsqaUBKTNV-1" source="SZy2DnvqH9q7Aidjh8Kh-1" target="SZy2DnvqH9q7Aidjh8Kh-18" edge="1">
          <mxGeometry relative="1" as="geometry" />
        </mxCell>
        <mxCell id="SZy2DnvqH9q7Aidjh8Kh-24" style="edgeStyle=orthogonalEdgeStyle;rounded=0;orthogonalLoop=1;jettySize=auto;html=1;entryX=0.5;entryY=0;entryDx=0;entryDy=0;" parent="WIyWlLk6GJQsqaUBKTNV-1" source="SZy2DnvqH9q7Aidjh8Kh-1" target="SZy2DnvqH9q7Aidjh8Kh-23" edge="1">
          <mxGeometry relative="1" as="geometry" />
        </mxCell>
        <mxCell id="oERIax1pWYj0Qw-6-vQE-2" style="edgeStyle=orthogonalEdgeStyle;rounded=0;orthogonalLoop=1;jettySize=auto;html=1;exitX=0;exitY=0;exitDx=0;exitDy=0;entryX=1;entryY=0.5;entryDx=0;entryDy=0;" parent="WIyWlLk6GJQsqaUBKTNV-1" source="SZy2DnvqH9q7Aidjh8Kh-1" target="oERIax1pWYj0Qw-6-vQE-0" edge="1">
          <mxGeometry relative="1" as="geometry" />
        </mxCell>
        <mxCell id="SZy2DnvqH9q7Aidjh8Kh-1" value="Main Window" style="rounded=0;whiteSpace=wrap;html=1;" parent="WIyWlLk6GJQsqaUBKTNV-1" vertex="1">
          <mxGeometry x="320" y="240" width="120" height="60" as="geometry" />
        </mxCell>
        <mxCell id="cHLCm-KbOeKaRvenmFyr-2" style="edgeStyle=orthogonalEdgeStyle;rounded=0;orthogonalLoop=1;jettySize=auto;html=1;entryX=0.5;entryY=0;entryDx=0;entryDy=0;" parent="WIyWlLk6GJQsqaUBKTNV-1" source="SZy2DnvqH9q7Aidjh8Kh-3" target="cHLCm-KbOeKaRvenmFyr-1" edge="1">
          <mxGeometry relative="1" as="geometry" />
        </mxCell>
        <mxCell id="cHLCm-KbOeKaRvenmFyr-12" style="edgeStyle=orthogonalEdgeStyle;rounded=0;orthogonalLoop=1;jettySize=auto;html=1;entryX=0.5;entryY=0;entryDx=0;entryDy=0;" parent="WIyWlLk6GJQsqaUBKTNV-1" source="SZy2DnvqH9q7Aidjh8Kh-3" target="cHLCm-KbOeKaRvenmFyr-11" edge="1">
          <mxGeometry relative="1" as="geometry">
            <Array as="points">
              <mxPoint x="65" y="300" />
              <mxPoint x="65" y="280" />
            </Array>
          </mxGeometry>
        </mxCell>
        <mxCell id="SZy2DnvqH9q7Aidjh8Kh-3" value="&amp;nbsp;Document&lt;br&gt;Search" style="shape=parallelogram;perimeter=parallelogramPerimeter;whiteSpace=wrap;html=1;fixedSize=1;" parent="WIyWlLk6GJQsqaUBKTNV-1" vertex="1">
          <mxGeometry x="160" y="240" width="120" height="60" as="geometry" />
        </mxCell>
        <mxCell id="SZy2DnvqH9q7Aidjh8Kh-8" style="edgeStyle=orthogonalEdgeStyle;rounded=0;orthogonalLoop=1;jettySize=auto;html=1;entryX=0.5;entryY=0;entryDx=0;entryDy=0;" parent="WIyWlLk6GJQsqaUBKTNV-1" source="SZy2DnvqH9q7Aidjh8Kh-5" target="SZy2DnvqH9q7Aidjh8Kh-7" edge="1">
          <mxGeometry relative="1" as="geometry" />
        </mxCell>
        <mxCell id="SZy2DnvqH9q7Aidjh8Kh-5" value="Displays all match document" style="rounded=0;whiteSpace=wrap;html=1;" parent="WIyWlLk6GJQsqaUBKTNV-1" vertex="1">
          <mxGeometry x="160" y="340" width="120" height="60" as="geometry" />
        </mxCell>
        <mxCell id="SZy2DnvqH9q7Aidjh8Kh-10" style="edgeStyle=orthogonalEdgeStyle;rounded=0;orthogonalLoop=1;jettySize=auto;html=1;entryX=0.5;entryY=0;entryDx=0;entryDy=0;" parent="WIyWlLk6GJQsqaUBKTNV-1" source="SZy2DnvqH9q7Aidjh8Kh-7" target="SZy2DnvqH9q7Aidjh8Kh-9" edge="1">
          <mxGeometry relative="1" as="geometry" />
        </mxCell>
        <mxCell id="SZy2DnvqH9q7Aidjh8Kh-7" value="Open a document" style="shape=parallelogram;perimeter=parallelogramPerimeter;whiteSpace=wrap;html=1;fixedSize=1;" parent="WIyWlLk6GJQsqaUBKTNV-1" vertex="1">
          <mxGeometry x="160" y="450" width="120" height="60" as="geometry" />
        </mxCell>
        <mxCell id="SZy2DnvqH9q7Aidjh8Kh-12" style="edgeStyle=orthogonalEdgeStyle;rounded=0;orthogonalLoop=1;jettySize=auto;html=1;entryX=0.5;entryY=0;entryDx=0;entryDy=0;" parent="WIyWlLk6GJQsqaUBKTNV-1" source="SZy2DnvqH9q7Aidjh8Kh-9" target="SZy2DnvqH9q7Aidjh8Kh-11" edge="1">
          <mxGeometry relative="1" as="geometry" />
        </mxCell>
        <mxCell id="SZy2DnvqH9q7Aidjh8Kh-16" style="edgeStyle=orthogonalEdgeStyle;rounded=0;orthogonalLoop=1;jettySize=auto;html=1;entryX=1;entryY=0.5;entryDx=0;entryDy=0;" parent="WIyWlLk6GJQsqaUBKTNV-1" source="SZy2DnvqH9q7Aidjh8Kh-9" target="SZy2DnvqH9q7Aidjh8Kh-15" edge="1">
          <mxGeometry relative="1" as="geometry" />
        </mxCell>
        <mxCell id="SZy2DnvqH9q7Aidjh8Kh-9" value="document displayed" style="rounded=0;whiteSpace=wrap;html=1;" parent="WIyWlLk6GJQsqaUBKTNV-1" vertex="1">
          <mxGeometry x="150" y="540" width="120" height="60" as="geometry" />
        </mxCell>
        <mxCell id="SZy2DnvqH9q7Aidjh8Kh-14" style="edgeStyle=orthogonalEdgeStyle;rounded=0;orthogonalLoop=1;jettySize=auto;html=1;entryX=0.5;entryY=0;entryDx=0;entryDy=0;" parent="WIyWlLk6GJQsqaUBKTNV-1" source="SZy2DnvqH9q7Aidjh8Kh-11" target="SZy2DnvqH9q7Aidjh8Kh-13" edge="1">
          <mxGeometry relative="1" as="geometry" />
        </mxCell>
        <mxCell id="SZy2DnvqH9q7Aidjh8Kh-11" value="Perform Search" style="shape=parallelogram;perimeter=parallelogramPerimeter;whiteSpace=wrap;html=1;fixedSize=1;" parent="WIyWlLk6GJQsqaUBKTNV-1" vertex="1">
          <mxGeometry x="40" y="640" width="120" height="60" as="geometry" />
        </mxCell>
        <mxCell id="SZy2DnvqH9q7Aidjh8Kh-27" style="edgeStyle=orthogonalEdgeStyle;rounded=0;orthogonalLoop=1;jettySize=auto;html=1;entryX=0.75;entryY=1;entryDx=0;entryDy=0;" parent="WIyWlLk6GJQsqaUBKTNV-1" edge="1">
          <mxGeometry relative="1" as="geometry">
            <Array as="points">
              <mxPoint x="-30.07" y="810" />
              <mxPoint x="249.93" y="810" />
            </Array>
            <mxPoint x="-30.003333333333394" y="830" as="sourcePoint" />
            <mxPoint x="249.93" y="600" as="targetPoint" />
          </mxGeometry>
        </mxCell>
        <mxCell id="SZy2DnvqH9q7Aidjh8Kh-13" value="HighLight all matches" style="rounded=0;whiteSpace=wrap;html=1;" parent="WIyWlLk6GJQsqaUBKTNV-1" vertex="1">
          <mxGeometry x="-100" y="830" width="120" height="60" as="geometry" />
        </mxCell>
        <mxCell id="SZy2DnvqH9q7Aidjh8Kh-15" value="close" style="shape=parallelogram;perimeter=parallelogramPerimeter;whiteSpace=wrap;html=1;fixedSize=1;" parent="WIyWlLk6GJQsqaUBKTNV-1" vertex="1">
          <mxGeometry x="-220" y="600" width="120" height="60" as="geometry" />
        </mxCell>
        <mxCell id="SZy2DnvqH9q7Aidjh8Kh-21" style="edgeStyle=orthogonalEdgeStyle;rounded=0;orthogonalLoop=1;jettySize=auto;html=1;entryX=0.5;entryY=0;entryDx=0;entryDy=0;" parent="WIyWlLk6GJQsqaUBKTNV-1" source="SZy2DnvqH9q7Aidjh8Kh-18" target="SZy2DnvqH9q7Aidjh8Kh-20" edge="1">
          <mxGeometry relative="1" as="geometry" />
        </mxCell>
        <mxCell id="SZy2DnvqH9q7Aidjh8Kh-18" value="Add new document" style="shape=parallelogram;perimeter=parallelogramPerimeter;whiteSpace=wrap;html=1;fixedSize=1;" parent="WIyWlLk6GJQsqaUBKTNV-1" vertex="1">
          <mxGeometry x="510" y="240" width="130" height="60" as="geometry" />
        </mxCell>
        <mxCell id="SZy2DnvqH9q7Aidjh8Kh-22" style="edgeStyle=orthogonalEdgeStyle;rounded=0;orthogonalLoop=1;jettySize=auto;html=1;entryX=0.75;entryY=1;entryDx=0;entryDy=0;" parent="WIyWlLk6GJQsqaUBKTNV-1" edge="1">
          <mxGeometry relative="1" as="geometry">
            <mxPoint x="590" y="480" as="sourcePoint" />
            <mxPoint x="460" y="290" as="targetPoint" />
          </mxGeometry>
        </mxCell>
        <mxCell id="SZy2DnvqH9q7Aidjh8Kh-20" value="Document Saved" style="rounded=0;whiteSpace=wrap;html=1;" parent="WIyWlLk6GJQsqaUBKTNV-1" vertex="1">
          <mxGeometry x="550" y="460" width="120" height="60" as="geometry" />
        </mxCell>
        <mxCell id="SZy2DnvqH9q7Aidjh8Kh-26" style="edgeStyle=orthogonalEdgeStyle;rounded=0;orthogonalLoop=1;jettySize=auto;html=1;" parent="WIyWlLk6GJQsqaUBKTNV-1" source="SZy2DnvqH9q7Aidjh8Kh-23" target="SZy2DnvqH9q7Aidjh8Kh-25" edge="1">
          <mxGeometry relative="1" as="geometry" />
        </mxCell>
        <mxCell id="SZy2DnvqH9q7Aidjh8Kh-23" value="close" style="shape=parallelogram;perimeter=parallelogramPerimeter;whiteSpace=wrap;html=1;fixedSize=1;" parent="WIyWlLk6GJQsqaUBKTNV-1" vertex="1">
          <mxGeometry x="294" y="440" width="120" height="60" as="geometry" />
        </mxCell>
        <mxCell id="SZy2DnvqH9q7Aidjh8Kh-25" value="End" style="ellipse;whiteSpace=wrap;html=1;" parent="WIyWlLk6GJQsqaUBKTNV-1" vertex="1">
          <mxGeometry x="290" y="600" width="120" height="80" as="geometry" />
        </mxCell>
        <mxCell id="cHLCm-KbOeKaRvenmFyr-4" value="" style="edgeStyle=orthogonalEdgeStyle;rounded=0;orthogonalLoop=1;jettySize=auto;html=1;" parent="WIyWlLk6GJQsqaUBKTNV-1" source="cHLCm-KbOeKaRvenmFyr-1" target="cHLCm-KbOeKaRvenmFyr-3" edge="1">
          <mxGeometry relative="1" as="geometry" />
        </mxCell>
        <mxCell id="cHLCm-KbOeKaRvenmFyr-19" style="edgeStyle=orthogonalEdgeStyle;rounded=0;orthogonalLoop=1;jettySize=auto;html=1;entryX=0.5;entryY=0;entryDx=0;entryDy=0;" parent="WIyWlLk6GJQsqaUBKTNV-1" source="cHLCm-KbOeKaRvenmFyr-1" target="cHLCm-KbOeKaRvenmFyr-6" edge="1">
          <mxGeometry relative="1" as="geometry" />
        </mxCell>
        <mxCell id="cHLCm-KbOeKaRvenmFyr-1" value="is Data &lt;br&gt;loaded" style="rhombus;whiteSpace=wrap;html=1;" parent="WIyWlLk6GJQsqaUBKTNV-1" vertex="1">
          <mxGeometry x="-250" y="240" width="80" height="80" as="geometry" />
        </mxCell>
        <mxCell id="NJsa9bvgBDqHbi6Z6qVn-8" style="edgeStyle=orthogonalEdgeStyle;rounded=0;orthogonalLoop=1;jettySize=auto;html=1;entryX=0;entryY=0.5;entryDx=0;entryDy=0;" edge="1" parent="WIyWlLk6GJQsqaUBKTNV-1" source="cHLCm-KbOeKaRvenmFyr-3" target="NJsa9bvgBDqHbi6Z6qVn-7">
          <mxGeometry relative="1" as="geometry">
            <Array as="points">
              <mxPoint x="-230" y="515" />
              <mxPoint x="-170" y="515" />
              <mxPoint x="-170" y="555" />
            </Array>
          </mxGeometry>
        </mxCell>
        <mxCell id="cHLCm-KbOeKaRvenmFyr-3" value="Find Documents" style="rounded=0;whiteSpace=wrap;html=1;" parent="WIyWlLk6GJQsqaUBKTNV-1" vertex="1">
          <mxGeometry x="-290" y="445" width="120" height="50" as="geometry" />
        </mxCell>
        <mxCell id="cHLCm-KbOeKaRvenmFyr-5" value="yes" style="text;html=1;strokeColor=none;fillColor=none;align=center;verticalAlign=middle;whiteSpace=wrap;rounded=0;" parent="WIyWlLk6GJQsqaUBKTNV-1" vertex="1">
          <mxGeometry x="-220" y="340" width="60" height="30" as="geometry" />
        </mxCell>
        <mxCell id="cHLCm-KbOeKaRvenmFyr-8" style="edgeStyle=orthogonalEdgeStyle;rounded=0;orthogonalLoop=1;jettySize=auto;html=1;entryX=0;entryY=0.5;entryDx=0;entryDy=0;" parent="WIyWlLk6GJQsqaUBKTNV-1" source="cHLCm-KbOeKaRvenmFyr-6" target="cHLCm-KbOeKaRvenmFyr-3" edge="1">
          <mxGeometry relative="1" as="geometry" />
        </mxCell>
        <mxCell id="cHLCm-KbOeKaRvenmFyr-6" value="Load Document" style="rounded=0;whiteSpace=wrap;html=1;" parent="WIyWlLk6GJQsqaUBKTNV-1" vertex="1">
          <mxGeometry x="-420" y="290" width="120" height="60" as="geometry" />
        </mxCell>
        <mxCell id="cHLCm-KbOeKaRvenmFyr-14" style="edgeStyle=orthogonalEdgeStyle;rounded=0;orthogonalLoop=1;jettySize=auto;html=1;" parent="WIyWlLk6GJQsqaUBKTNV-1" source="cHLCm-KbOeKaRvenmFyr-11" target="cHLCm-KbOeKaRvenmFyr-3" edge="1">
          <mxGeometry relative="1" as="geometry">
            <Array as="points">
              <mxPoint x="-110" y="455" />
            </Array>
          </mxGeometry>
        </mxCell>
        <mxCell id="cHLCm-KbOeKaRvenmFyr-11" value="is Trie &lt;br&gt;loaded" style="rhombus;whiteSpace=wrap;html=1;" parent="WIyWlLk6GJQsqaUBKTNV-1" vertex="1">
          <mxGeometry x="-110" y="280" width="80" height="80" as="geometry" />
        </mxCell>
        <mxCell id="cHLCm-KbOeKaRvenmFyr-15" value="yes" style="text;html=1;strokeColor=none;fillColor=none;align=center;verticalAlign=middle;whiteSpace=wrap;rounded=0;" parent="WIyWlLk6GJQsqaUBKTNV-1" vertex="1">
          <mxGeometry x="-160" y="390" width="60" height="30" as="geometry" />
        </mxCell>
        <mxCell id="cHLCm-KbOeKaRvenmFyr-20" value="no" style="text;html=1;strokeColor=none;fillColor=none;align=center;verticalAlign=middle;whiteSpace=wrap;rounded=0;" parent="WIyWlLk6GJQsqaUBKTNV-1" vertex="1">
          <mxGeometry x="-340" y="240" width="60" height="30" as="geometry" />
        </mxCell>
        <mxCell id="cHLCm-KbOeKaRvenmFyr-24" style="edgeStyle=orthogonalEdgeStyle;rounded=0;orthogonalLoop=1;jettySize=auto;html=1;entryX=0.75;entryY=0;entryDx=0;entryDy=0;" parent="WIyWlLk6GJQsqaUBKTNV-1" source="cHLCm-KbOeKaRvenmFyr-21" target="cHLCm-KbOeKaRvenmFyr-3" edge="1">
          <mxGeometry relative="1" as="geometry" />
        </mxCell>
        <mxCell id="cHLCm-KbOeKaRvenmFyr-21" value="load trie" style="rounded=0;whiteSpace=wrap;html=1;" parent="WIyWlLk6GJQsqaUBKTNV-1" vertex="1">
          <mxGeometry x="-100" y="400" width="120" height="60" as="geometry" />
        </mxCell>
        <mxCell id="cHLCm-KbOeKaRvenmFyr-22" style="edgeStyle=orthogonalEdgeStyle;rounded=0;orthogonalLoop=1;jettySize=auto;html=1;entryX=0.358;entryY=0.009;entryDx=0;entryDy=0;entryPerimeter=0;" parent="WIyWlLk6GJQsqaUBKTNV-1" source="cHLCm-KbOeKaRvenmFyr-11" target="cHLCm-KbOeKaRvenmFyr-21" edge="1">
          <mxGeometry relative="1" as="geometry" />
        </mxCell>
        <mxCell id="cHLCm-KbOeKaRvenmFyr-23" value="no" style="text;html=1;strokeColor=none;fillColor=none;align=center;verticalAlign=middle;whiteSpace=wrap;rounded=0;" parent="WIyWlLk6GJQsqaUBKTNV-1" vertex="1">
          <mxGeometry x="-80" y="355" width="60" height="30" as="geometry" />
        </mxCell>
        <mxCell id="oERIax1pWYj0Qw-6-vQE-4" value="" style="edgeStyle=orthogonalEdgeStyle;rounded=0;orthogonalLoop=1;jettySize=auto;html=1;" parent="WIyWlLk6GJQsqaUBKTNV-1" source="oERIax1pWYj0Qw-6-vQE-0" target="oERIax1pWYj0Qw-6-vQE-3" edge="1">
          <mxGeometry relative="1" as="geometry" />
        </mxCell>
        <mxCell id="oERIax1pWYj0Qw-6-vQE-0" value="Enter Key word&lt;br&gt;to search" style="shape=parallelogram;perimeter=parallelogramPerimeter;whiteSpace=wrap;html=1;fixedSize=1;" parent="WIyWlLk6GJQsqaUBKTNV-1" vertex="1">
          <mxGeometry x="80" y="90" width="120" height="60" as="geometry" />
        </mxCell>
        <mxCell id="oERIax1pWYj0Qw-6-vQE-6" value="" style="edgeStyle=orthogonalEdgeStyle;rounded=0;orthogonalLoop=1;jettySize=auto;html=1;" parent="WIyWlLk6GJQsqaUBKTNV-1" source="oERIax1pWYj0Qw-6-vQE-3" target="oERIax1pWYj0Qw-6-vQE-5" edge="1">
          <mxGeometry relative="1" as="geometry" />
        </mxCell>
        <mxCell id="oERIax1pWYj0Qw-6-vQE-29" value="" style="edgeStyle=orthogonalEdgeStyle;rounded=0;orthogonalLoop=1;jettySize=auto;html=1;" parent="WIyWlLk6GJQsqaUBKTNV-1" source="oERIax1pWYj0Qw-6-vQE-3" edge="1">
          <mxGeometry relative="1" as="geometry">
            <mxPoint x="-24.94117647058806" y="-132" as="targetPoint" />
          </mxGeometry>
        </mxCell>
        <mxCell id="oERIax1pWYj0Qw-6-vQE-43" style="edgeStyle=orthogonalEdgeStyle;rounded=0;orthogonalLoop=1;jettySize=auto;html=1;entryX=0.5;entryY=1;entryDx=0;entryDy=0;" parent="WIyWlLk6GJQsqaUBKTNV-1" source="oERIax1pWYj0Qw-6-vQE-3" target="oERIax1pWYj0Qw-6-vQE-42" edge="1">
          <mxGeometry relative="1" as="geometry">
            <mxPoint x="180" y="-90" as="targetPoint" />
          </mxGeometry>
        </mxCell>
        <mxCell id="oERIax1pWYj0Qw-6-vQE-3" value="Enter file name&lt;br&gt;int count=0;" style="shape=parallelogram;perimeter=parallelogramPerimeter;whiteSpace=wrap;html=1;fixedSize=1;" parent="WIyWlLk6GJQsqaUBKTNV-1" vertex="1">
          <mxGeometry x="-120" y="10" width="120" height="60" as="geometry" />
        </mxCell>
        <mxCell id="oERIax1pWYj0Qw-6-vQE-8" style="edgeStyle=orthogonalEdgeStyle;rounded=0;orthogonalLoop=1;jettySize=auto;html=1;entryX=0.25;entryY=1;entryDx=0;entryDy=0;" parent="WIyWlLk6GJQsqaUBKTNV-1" source="oERIax1pWYj0Qw-6-vQE-5" target="oERIax1pWYj0Qw-6-vQE-3" edge="1">
          <mxGeometry relative="1" as="geometry">
            <mxPoint x="-120" y="180" as="targetPoint" />
            <Array as="points">
              <mxPoint x="-290" y="100" />
              <mxPoint x="-160" y="100" />
              <mxPoint x="-160" y="190" />
              <mxPoint x="-90" y="190" />
            </Array>
          </mxGeometry>
        </mxCell>
        <mxCell id="oERIax1pWYj0Qw-6-vQE-18" style="edgeStyle=orthogonalEdgeStyle;rounded=0;orthogonalLoop=1;jettySize=auto;html=1;entryX=1;entryY=0.5;entryDx=0;entryDy=0;" parent="WIyWlLk6GJQsqaUBKTNV-1" source="oERIax1pWYj0Qw-6-vQE-5" target="oERIax1pWYj0Qw-6-vQE-17" edge="1">
          <mxGeometry relative="1" as="geometry" />
        </mxCell>
        <mxCell id="oERIax1pWYj0Qw-6-vQE-5" value="is file open" style="rhombus;whiteSpace=wrap;html=1;" parent="WIyWlLk6GJQsqaUBKTNV-1" vertex="1">
          <mxGeometry x="-330" y="-70" width="80" height="80" as="geometry" />
        </mxCell>
        <mxCell id="oERIax1pWYj0Qw-6-vQE-9" value="no" style="text;html=1;align=center;verticalAlign=middle;resizable=0;points=[];autosize=1;strokeColor=none;fillColor=none;" parent="WIyWlLk6GJQsqaUBKTNV-1" vertex="1">
          <mxGeometry x="-280" y="18" width="40" height="30" as="geometry" />
        </mxCell>
        <mxCell id="oERIax1pWYj0Qw-6-vQE-14" style="edgeStyle=orthogonalEdgeStyle;rounded=0;orthogonalLoop=1;jettySize=auto;html=1;entryX=0.5;entryY=0;entryDx=0;entryDy=0;" parent="WIyWlLk6GJQsqaUBKTNV-1" source="oERIax1pWYj0Qw-6-vQE-10" target="oERIax1pWYj0Qw-6-vQE-16" edge="1">
          <mxGeometry relative="1" as="geometry">
            <mxPoint x="-485" y="190" as="targetPoint" />
            <Array as="points">
              <mxPoint x="-555" y="114" />
              <mxPoint x="-560" y="114" />
              <mxPoint x="-560" y="190" />
              <mxPoint x="-540" y="190" />
            </Array>
          </mxGeometry>
        </mxCell>
        <mxCell id="oERIax1pWYj0Qw-6-vQE-10" value="keyword==input from File" style="rhombus;whiteSpace=wrap;html=1;" parent="WIyWlLk6GJQsqaUBKTNV-1" vertex="1">
          <mxGeometry x="-630" y="-132" width="150" height="120" as="geometry" />
        </mxCell>
        <mxCell id="oERIax1pWYj0Qw-6-vQE-13" value="yes" style="text;html=1;align=center;verticalAlign=middle;resizable=0;points=[];autosize=1;strokeColor=none;fillColor=none;" parent="WIyWlLk6GJQsqaUBKTNV-1" vertex="1">
          <mxGeometry x="-350" y="-82" width="40" height="30" as="geometry" />
        </mxCell>
        <mxCell id="oERIax1pWYj0Qw-6-vQE-15" value="yes" style="text;html=1;align=center;verticalAlign=middle;resizable=0;points=[];autosize=1;strokeColor=none;fillColor=none;" parent="WIyWlLk6GJQsqaUBKTNV-1" vertex="1">
          <mxGeometry x="-550" y="28" width="40" height="30" as="geometry" />
        </mxCell>
        <mxCell id="oERIax1pWYj0Qw-6-vQE-16" value="count++" style="shape=parallelogram;perimeter=parallelogramPerimeter;whiteSpace=wrap;html=1;fixedSize=1;" parent="WIyWlLk6GJQsqaUBKTNV-1" vertex="1">
          <mxGeometry x="-600" y="210" width="120" height="60" as="geometry" />
        </mxCell>
        <mxCell id="oERIax1pWYj0Qw-6-vQE-19" style="edgeStyle=orthogonalEdgeStyle;rounded=0;orthogonalLoop=1;jettySize=auto;html=1;" parent="WIyWlLk6GJQsqaUBKTNV-1" source="oERIax1pWYj0Qw-6-vQE-17" target="oERIax1pWYj0Qw-6-vQE-10" edge="1">
          <mxGeometry relative="1" as="geometry" />
        </mxCell>
        <mxCell id="oERIax1pWYj0Qw-6-vQE-22" style="edgeStyle=orthogonalEdgeStyle;rounded=0;orthogonalLoop=1;jettySize=auto;html=1;exitX=0.5;exitY=1;exitDx=0;exitDy=0;entryX=0.5;entryY=0;entryDx=0;entryDy=0;" parent="WIyWlLk6GJQsqaUBKTNV-1" source="oERIax1pWYj0Qw-6-vQE-17" target="oERIax1pWYj0Qw-6-vQE-21" edge="1">
          <mxGeometry relative="1" as="geometry" />
        </mxCell>
        <mxCell id="oERIax1pWYj0Qw-6-vQE-17" value="input.eof()==0" style="rhombus;whiteSpace=wrap;html=1;" parent="WIyWlLk6GJQsqaUBKTNV-1" vertex="1">
          <mxGeometry x="-457" y="-170" width="97" height="110" as="geometry" />
        </mxCell>
        <mxCell id="oERIax1pWYj0Qw-6-vQE-20" value="yes&lt;br&gt;" style="text;html=1;align=center;verticalAlign=middle;resizable=0;points=[];autosize=1;strokeColor=none;fillColor=none;" parent="WIyWlLk6GJQsqaUBKTNV-1" vertex="1">
          <mxGeometry x="-490" y="-162" width="40" height="30" as="geometry" />
        </mxCell>
        <mxCell id="oERIax1pWYj0Qw-6-vQE-21" value="print count" style="shape=parallelogram;perimeter=parallelogramPerimeter;whiteSpace=wrap;html=1;fixedSize=1;" parent="WIyWlLk6GJQsqaUBKTNV-1" vertex="1">
          <mxGeometry x="-480" y="80" width="120" height="60" as="geometry" />
        </mxCell>
        <mxCell id="oERIax1pWYj0Qw-6-vQE-23" value="no" style="text;html=1;align=center;verticalAlign=middle;resizable=0;points=[];autosize=1;strokeColor=none;fillColor=none;" parent="WIyWlLk6GJQsqaUBKTNV-1" vertex="1">
          <mxGeometry x="-450" y="-32" width="40" height="30" as="geometry" />
        </mxCell>
        <mxCell id="oERIax1pWYj0Qw-6-vQE-26" value="" style="endArrow=classic;html=1;rounded=0;entryX=0.5;entryY=0;entryDx=0;entryDy=0;exitX=0.5;exitY=0;exitDx=0;exitDy=0;" parent="WIyWlLk6GJQsqaUBKTNV-1" source="oERIax1pWYj0Qw-6-vQE-10" target="oERIax1pWYj0Qw-6-vQE-17" edge="1">
          <mxGeometry width="50" height="50" relative="1" as="geometry">
            <mxPoint x="-550" y="-110" as="sourcePoint" />
            <mxPoint x="-390" y="-260" as="targetPoint" />
            <Array as="points">
              <mxPoint x="-560" y="-260" />
              <mxPoint x="-480" y="-260" />
              <mxPoint x="-400" y="-260" />
            </Array>
          </mxGeometry>
        </mxCell>
        <mxCell id="oERIax1pWYj0Qw-6-vQE-27" value="no" style="text;html=1;align=center;verticalAlign=middle;resizable=0;points=[];autosize=1;strokeColor=none;fillColor=none;" parent="WIyWlLk6GJQsqaUBKTNV-1" vertex="1">
          <mxGeometry x="-600" y="-132" width="40" height="30" as="geometry" />
        </mxCell>
        <mxCell id="oERIax1pWYj0Qw-6-vQE-32" value="" style="edgeStyle=orthogonalEdgeStyle;rounded=0;orthogonalLoop=1;jettySize=auto;html=1;" parent="WIyWlLk6GJQsqaUBKTNV-1" source="oERIax1pWYj0Qw-6-vQE-30" target="oERIax1pWYj0Qw-6-vQE-31" edge="1">
          <mxGeometry relative="1" as="geometry" />
        </mxCell>
        <mxCell id="oERIax1pWYj0Qw-6-vQE-40" style="edgeStyle=orthogonalEdgeStyle;rounded=0;orthogonalLoop=1;jettySize=auto;html=1;" parent="WIyWlLk6GJQsqaUBKTNV-1" source="oERIax1pWYj0Qw-6-vQE-30" edge="1">
          <mxGeometry relative="1" as="geometry">
            <mxPoint x="-270" y="-350" as="targetPoint" />
          </mxGeometry>
        </mxCell>
        <mxCell id="oERIax1pWYj0Qw-6-vQE-30" value="input.eof()==0" style="rhombus;whiteSpace=wrap;html=1;" parent="WIyWlLk6GJQsqaUBKTNV-1" vertex="1">
          <mxGeometry x="-90" y="-250" width="130" height="118" as="geometry" />
        </mxCell>
        <mxCell id="oERIax1pWYj0Qw-6-vQE-35" value="" style="edgeStyle=orthogonalEdgeStyle;rounded=0;orthogonalLoop=1;jettySize=auto;html=1;" parent="WIyWlLk6GJQsqaUBKTNV-1" source="oERIax1pWYj0Qw-6-vQE-31" target="oERIax1pWYj0Qw-6-vQE-34" edge="1">
          <mxGeometry relative="1" as="geometry" />
        </mxCell>
        <mxCell id="oERIax1pWYj0Qw-6-vQE-38" value="" style="edgeStyle=orthogonalEdgeStyle;rounded=0;orthogonalLoop=1;jettySize=auto;html=1;" parent="WIyWlLk6GJQsqaUBKTNV-1" source="oERIax1pWYj0Qw-6-vQE-31" target="oERIax1pWYj0Qw-6-vQE-37" edge="1">
          <mxGeometry relative="1" as="geometry" />
        </mxCell>
        <mxCell id="oERIax1pWYj0Qw-6-vQE-31" value="is keyword==input" style="rhombus;whiteSpace=wrap;html=1;" parent="WIyWlLk6GJQsqaUBKTNV-1" vertex="1">
          <mxGeometry x="-110" y="-429" width="170" height="80" as="geometry" />
        </mxCell>
        <mxCell id="oERIax1pWYj0Qw-6-vQE-33" value="yes&lt;br&gt;" style="text;html=1;align=center;verticalAlign=middle;resizable=0;points=[];autosize=1;strokeColor=none;fillColor=none;" parent="WIyWlLk6GJQsqaUBKTNV-1" vertex="1">
          <mxGeometry x="-10" y="-272" width="40" height="30" as="geometry" />
        </mxCell>
        <mxCell id="oERIax1pWYj0Qw-6-vQE-34" value="print exist&lt;br&gt;" style="shape=parallelogram;perimeter=parallelogramPerimeter;whiteSpace=wrap;html=1;fixedSize=1;" parent="WIyWlLk6GJQsqaUBKTNV-1" vertex="1">
          <mxGeometry x="165" y="-419" width="145" height="60" as="geometry" />
        </mxCell>
        <mxCell id="oERIax1pWYj0Qw-6-vQE-36" value="yes" style="text;html=1;align=center;verticalAlign=middle;resizable=0;points=[];autosize=1;strokeColor=none;fillColor=none;" parent="WIyWlLk6GJQsqaUBKTNV-1" vertex="1">
          <mxGeometry x="80" y="-432" width="40" height="30" as="geometry" />
        </mxCell>
        <mxCell id="oERIax1pWYj0Qw-6-vQE-37" value="print&amp;nbsp; not exist" style="shape=parallelogram;perimeter=parallelogramPerimeter;whiteSpace=wrap;html=1;fixedSize=1;" parent="WIyWlLk6GJQsqaUBKTNV-1" vertex="1">
          <mxGeometry x="-335" y="-419" width="120" height="60" as="geometry" />
        </mxCell>
        <mxCell id="oERIax1pWYj0Qw-6-vQE-39" value="no" style="text;html=1;align=center;verticalAlign=middle;resizable=0;points=[];autosize=1;strokeColor=none;fillColor=none;" parent="WIyWlLk6GJQsqaUBKTNV-1" vertex="1">
          <mxGeometry x="-150" y="-422" width="40" height="30" as="geometry" />
        </mxCell>
        <mxCell id="oERIax1pWYj0Qw-6-vQE-41" value="no&lt;br&gt;" style="text;html=1;align=center;verticalAlign=middle;resizable=0;points=[];autosize=1;strokeColor=none;fillColor=none;" parent="WIyWlLk6GJQsqaUBKTNV-1" vertex="1">
          <mxGeometry x="-190" y="-232" width="40" height="30" as="geometry" />
        </mxCell>
        <mxCell id="oERIax1pWYj0Qw-6-vQE-45" value="" style="edgeStyle=orthogonalEdgeStyle;rounded=0;orthogonalLoop=1;jettySize=auto;html=1;" parent="WIyWlLk6GJQsqaUBKTNV-1" source="oERIax1pWYj0Qw-6-vQE-42" target="oERIax1pWYj0Qw-6-vQE-44" edge="1">
          <mxGeometry relative="1" as="geometry" />
        </mxCell>
        <mxCell id="oERIax1pWYj0Qw-6-vQE-42" value="input.eof()==0" style="rhombus;whiteSpace=wrap;html=1;" parent="WIyWlLk6GJQsqaUBKTNV-1" vertex="1">
          <mxGeometry x="110" y="-220" width="130" height="118" as="geometry" />
        </mxCell>
        <mxCell id="oERIax1pWYj0Qw-6-vQE-48" value="" style="edgeStyle=orthogonalEdgeStyle;rounded=0;orthogonalLoop=1;jettySize=auto;html=1;" parent="WIyWlLk6GJQsqaUBKTNV-1" source="oERIax1pWYj0Qw-6-vQE-44" target="oERIax1pWYj0Qw-6-vQE-47" edge="1">
          <mxGeometry relative="1" as="geometry" />
        </mxCell>
        <mxCell id="oERIax1pWYj0Qw-6-vQE-44" value="input from file" style="shape=parallelogram;perimeter=parallelogramPerimeter;whiteSpace=wrap;html=1;fixedSize=1;" parent="WIyWlLk6GJQsqaUBKTNV-1" vertex="1">
          <mxGeometry x="325" y="-191" width="120" height="60" as="geometry" />
        </mxCell>
        <mxCell id="oERIax1pWYj0Qw-6-vQE-51" value="" style="edgeStyle=orthogonalEdgeStyle;rounded=0;orthogonalLoop=1;jettySize=auto;html=1;" parent="WIyWlLk6GJQsqaUBKTNV-1" source="oERIax1pWYj0Qw-6-vQE-47" edge="1">
          <mxGeometry relative="1" as="geometry">
            <mxPoint x="980" y="-172" as="targetPoint" />
          </mxGeometry>
        </mxCell>
        <mxCell id="oERIax1pWYj0Qw-6-vQE-47" value="if input[input.length()-1==&#39;.&#39;]" style="rhombus;whiteSpace=wrap;html=1;" parent="WIyWlLk6GJQsqaUBKTNV-1" vertex="1">
          <mxGeometry x="545" y="-260" width="215" height="190" as="geometry" />
        </mxCell>
        <mxCell id="oERIax1pWYj0Qw-6-vQE-52" value="yes" style="text;html=1;align=center;verticalAlign=middle;resizable=0;points=[];autosize=1;strokeColor=none;fillColor=none;" parent="WIyWlLk6GJQsqaUBKTNV-1" vertex="1">
          <mxGeometry x="810" y="-212" width="40" height="30" as="geometry" />
        </mxCell>
        <mxCell id="oERIax1pWYj0Qw-6-vQE-55" value="" style="endArrow=classic;html=1;rounded=0;exitX=0.5;exitY=0;exitDx=0;exitDy=0;entryX=0.5;entryY=0;entryDx=0;entryDy=0;" parent="WIyWlLk6GJQsqaUBKTNV-1" source="oERIax1pWYj0Qw-6-vQE-47" target="oERIax1pWYj0Qw-6-vQE-42" edge="1">
          <mxGeometry width="50" height="50" relative="1" as="geometry">
            <mxPoint x="430" y="-309" as="sourcePoint" />
            <mxPoint x="360" y="-270" as="targetPoint" />
            <Array as="points">
              <mxPoint x="680" y="-360" />
              <mxPoint x="160" y="-330" />
            </Array>
          </mxGeometry>
        </mxCell>
        <mxCell id="oERIax1pWYj0Qw-6-vQE-56" value="no" style="text;html=1;align=center;verticalAlign=middle;resizable=0;points=[];autosize=1;strokeColor=none;fillColor=none;" parent="WIyWlLk6GJQsqaUBKTNV-1" vertex="1">
          <mxGeometry x="620" y="-302" width="40" height="30" as="geometry" />
        </mxCell>
        <mxCell id="oERIax1pWYj0Qw-6-vQE-59" value="" style="edgeStyle=orthogonalEdgeStyle;rounded=0;orthogonalLoop=1;jettySize=auto;html=1;" parent="WIyWlLk6GJQsqaUBKTNV-1" source="oERIax1pWYj0Qw-6-vQE-57" target="oERIax1pWYj0Qw-6-vQE-58" edge="1">
          <mxGeometry relative="1" as="geometry" />
        </mxCell>
        <mxCell id="oERIax1pWYj0Qw-6-vQE-57" value="if keyword==temp-&amp;gt;data" style="rhombus;whiteSpace=wrap;html=1;" parent="WIyWlLk6GJQsqaUBKTNV-1" vertex="1">
          <mxGeometry x="1270" y="-242" width="240" height="210" as="geometry" />
        </mxCell>
        <mxCell id="oERIax1pWYj0Qw-6-vQE-58" value="display line" style="shape=parallelogram;perimeter=parallelogramPerimeter;whiteSpace=wrap;html=1;fixedSize=1;" parent="WIyWlLk6GJQsqaUBKTNV-1" vertex="1">
          <mxGeometry x="1040" y="85" width="120" height="60" as="geometry" />
        </mxCell>
        <mxCell id="oERIax1pWYj0Qw-6-vQE-62" style="edgeStyle=orthogonalEdgeStyle;rounded=0;orthogonalLoop=1;jettySize=auto;html=1;entryX=0.5;entryY=0;entryDx=0;entryDy=0;" parent="WIyWlLk6GJQsqaUBKTNV-1" source="oERIax1pWYj0Qw-6-vQE-60" target="oERIax1pWYj0Qw-6-vQE-57" edge="1">
          <mxGeometry relative="1" as="geometry" />
        </mxCell>
        <mxCell id="oERIax1pWYj0Qw-6-vQE-60" value="temp!=nullptr" style="rhombus;whiteSpace=wrap;html=1;" parent="WIyWlLk6GJQsqaUBKTNV-1" vertex="1">
          <mxGeometry x="980" y="-212" width="170" height="80" as="geometry" />
        </mxCell>
        <mxCell id="oERIax1pWYj0Qw-6-vQE-63" value="yes" style="text;html=1;align=center;verticalAlign=middle;resizable=0;points=[];autosize=1;strokeColor=none;fillColor=none;" parent="WIyWlLk6GJQsqaUBKTNV-1" vertex="1">
          <mxGeometry x="1160" y="-232" width="40" height="30" as="geometry" />
        </mxCell>
        <mxCell id="oERIax1pWYj0Qw-6-vQE-64" value="" style="endArrow=classic;html=1;rounded=0;exitX=1;exitY=0.5;exitDx=0;exitDy=0;entryX=0.5;entryY=0;entryDx=0;entryDy=0;" parent="WIyWlLk6GJQsqaUBKTNV-1" source="oERIax1pWYj0Qw-6-vQE-57" target="oERIax1pWYj0Qw-6-vQE-60" edge="1">
          <mxGeometry width="50" height="50" relative="1" as="geometry">
            <mxPoint x="1520" y="-250" as="sourcePoint" />
            <mxPoint x="1060" y="-220" as="targetPoint" />
            <Array as="points">
              <mxPoint x="1510" y="-310" />
              <mxPoint x="1050" y="-310" />
            </Array>
          </mxGeometry>
        </mxCell>
        <mxCell id="oERIax1pWYj0Qw-6-vQE-65" value="&amp;nbsp; no" style="text;html=1;align=center;verticalAlign=middle;resizable=0;points=[];autosize=1;strokeColor=none;fillColor=none;" parent="WIyWlLk6GJQsqaUBKTNV-1" vertex="1">
          <mxGeometry x="1500" y="-182" width="40" height="30" as="geometry" />
        </mxCell>
        <mxCell id="oERIax1pWYj0Qw-6-vQE-68" value="" style="endArrow=classic;html=1;rounded=0;exitX=0.5;exitY=1;exitDx=0;exitDy=0;" parent="WIyWlLk6GJQsqaUBKTNV-1" source="oERIax1pWYj0Qw-6-vQE-60" target="oERIax1pWYj0Qw-6-vQE-42" edge="1">
          <mxGeometry width="50" height="50" relative="1" as="geometry">
            <mxPoint x="600" y="-100" as="sourcePoint" />
            <mxPoint x="650" y="-150" as="targetPoint" />
            <Array as="points">
              <mxPoint x="860" y="20" />
              <mxPoint x="310" y="-30" />
            </Array>
          </mxGeometry>
        </mxCell>
        <mxCell id="oERIax1pWYj0Qw-6-vQE-69" value="no" style="text;html=1;align=center;verticalAlign=middle;resizable=0;points=[];autosize=1;strokeColor=none;fillColor=none;" parent="WIyWlLk6GJQsqaUBKTNV-1" vertex="1">
          <mxGeometry x="990" y="-132" width="40" height="30" as="geometry" />
        </mxCell>
        <mxCell id="oERIax1pWYj0Qw-6-vQE-70" value="yes" style="text;html=1;align=center;verticalAlign=middle;resizable=0;points=[];autosize=1;strokeColor=none;fillColor=none;" parent="WIyWlLk6GJQsqaUBKTNV-1" vertex="1">
          <mxGeometry x="1200" y="-132" width="40" height="30" as="geometry" />
        </mxCell>
        <mxCell id="NJsa9bvgBDqHbi6Z6qVn-3" style="edgeStyle=orthogonalEdgeStyle;rounded=0;orthogonalLoop=1;jettySize=auto;html=1;entryX=0;entryY=0.5;entryDx=0;entryDy=0;" edge="1" parent="WIyWlLk6GJQsqaUBKTNV-1" source="NJsa9bvgBDqHbi6Z6qVn-0" target="NJsa9bvgBDqHbi6Z6qVn-2">
          <mxGeometry relative="1" as="geometry" />
        </mxCell>
        <mxCell id="NJsa9bvgBDqHbi6Z6qVn-0" value="settings" style="shape=parallelogram;perimeter=parallelogramPerimeter;whiteSpace=wrap;html=1;fixedSize=1;" vertex="1" parent="WIyWlLk6GJQsqaUBKTNV-1">
          <mxGeometry x="570" y="110" width="120" height="60" as="geometry" />
        </mxCell>
        <mxCell id="NJsa9bvgBDqHbi6Z6qVn-1" style="edgeStyle=orthogonalEdgeStyle;rounded=0;orthogonalLoop=1;jettySize=auto;html=1;entryX=0;entryY=0.833;entryDx=0;entryDy=0;entryPerimeter=0;" edge="1" parent="WIyWlLk6GJQsqaUBKTNV-1" source="SZy2DnvqH9q7Aidjh8Kh-1" target="NJsa9bvgBDqHbi6Z6qVn-0">
          <mxGeometry relative="1" as="geometry">
            <Array as="points">
              <mxPoint x="505" y="250" />
              <mxPoint x="505" y="160" />
            </Array>
          </mxGeometry>
        </mxCell>
        <mxCell id="NJsa9bvgBDqHbi6Z6qVn-5" style="edgeStyle=orthogonalEdgeStyle;rounded=0;orthogonalLoop=1;jettySize=auto;html=1;entryX=1;entryY=0.5;entryDx=0;entryDy=0;" edge="1" parent="WIyWlLk6GJQsqaUBKTNV-1" source="NJsa9bvgBDqHbi6Z6qVn-2" target="NJsa9bvgBDqHbi6Z6qVn-4">
          <mxGeometry relative="1" as="geometry" />
        </mxCell>
        <mxCell id="NJsa9bvgBDqHbi6Z6qVn-2" value="display &lt;br&gt;search history" style="shape=parallelogram;perimeter=parallelogramPerimeter;whiteSpace=wrap;html=1;fixedSize=1;" vertex="1" parent="WIyWlLk6GJQsqaUBKTNV-1">
          <mxGeometry x="730" y="120" width="120" height="60" as="geometry" />
        </mxCell>
        <mxCell id="NJsa9bvgBDqHbi6Z6qVn-6" style="edgeStyle=orthogonalEdgeStyle;rounded=0;orthogonalLoop=1;jettySize=auto;html=1;" edge="1" parent="WIyWlLk6GJQsqaUBKTNV-1" source="NJsa9bvgBDqHbi6Z6qVn-4" target="NJsa9bvgBDqHbi6Z6qVn-0">
          <mxGeometry relative="1" as="geometry" />
        </mxCell>
        <mxCell id="NJsa9bvgBDqHbi6Z6qVn-4" value="search history displayed" style="rounded=0;whiteSpace=wrap;html=1;" vertex="1" parent="WIyWlLk6GJQsqaUBKTNV-1">
          <mxGeometry x="640" y="20" width="120" height="60" as="geometry" />
        </mxCell>
        <mxCell id="NJsa9bvgBDqHbi6Z6qVn-9" style="edgeStyle=orthogonalEdgeStyle;rounded=0;orthogonalLoop=1;jettySize=auto;html=1;entryX=0;entryY=0.75;entryDx=0;entryDy=0;" edge="1" parent="WIyWlLk6GJQsqaUBKTNV-1" source="NJsa9bvgBDqHbi6Z6qVn-7" target="SZy2DnvqH9q7Aidjh8Kh-5">
          <mxGeometry relative="1" as="geometry" />
        </mxCell>
        <mxCell id="NJsa9bvgBDqHbi6Z6qVn-7" value="add to search history" style="rounded=0;whiteSpace=wrap;html=1;" vertex="1" parent="WIyWlLk6GJQsqaUBKTNV-1">
          <mxGeometry x="-150" y="525" width="120" height="60" as="geometry" />
        </mxCell>
      </root>
    </mxGraphModel>
  </diagram>
</mxfile>
